<svg width="38" height="38" viewBox="0 0 38 38" fill="none" xmlns="http://www.w3.org/2000/svg">
<path d="M36.643 29.8572H32.5716V25.7857C32.5716 25.4258 32.4286 25.0806 32.1741 24.8261C31.9196 24.5716 31.5744 24.4286 31.2144 24.4286C30.8545 24.4286 30.5093 24.5716 30.2548 24.8261C30.0003 25.0806 29.8573 25.4258 29.8573 25.7857V29.8572H25.7859C25.4259 29.8572 25.0807 30.0001 24.8262 30.2547C24.5717 30.5092 24.4287 30.8544 24.4287 31.2143C24.4287 31.5742 24.5717 31.9194 24.8262 32.1739C25.0807 32.4285 25.4259 32.5714 25.7859 32.5714H29.8573V36.6429C29.8573 37.0028 30.0003 37.348 30.2548 37.6025C30.5093 37.857 30.8545 38 31.2144 38C31.5744 38 31.9196 37.857 32.1741 37.6025C32.4286 37.348 32.5716 37.0028 32.5716 36.6429V32.5714H36.643C37.0029 32.5714 37.3481 32.4285 37.6026 32.1739C37.8572 31.9194 38.0001 31.5742 38.0001 31.2143C38.0001 30.8544 37.8572 30.5092 37.6026 30.2547C37.3481 30.0001 37.0029 29.8572 36.643 29.8572Z" fill="#999999"/>
<path d="M20.3571 29.8571H4.07143C3.71149 29.8571 3.3663 29.7142 3.11178 29.4596C2.85727 29.2051 2.71429 28.8599 2.71429 28.5V4.07143C2.71429 3.71149 2.85727 3.3663 3.11178 3.11178C3.3663 2.85727 3.71149 2.71429 4.07143 2.71429H28.5C28.8599 2.71429 29.2051 2.85727 29.4596 3.11178C29.7142 3.3663 29.8571 3.71149 29.8571 4.07143V20.3571C29.8571 20.7171 30.0001 21.0623 30.2546 21.3168C30.5092 21.5713 30.8544 21.7143 31.2143 21.7143C31.5742 21.7143 31.9194 21.5713 32.1739 21.3168C32.4284 21.0623 32.5714 20.7171 32.5714 20.3571V4.07143C32.5714 2.99162 32.1425 1.95604 31.3789 1.19249C30.6154 0.428953 29.5798 0 28.5 0H4.07143C2.99162 0 1.95604 0.428953 1.19249 1.19249C0.428953 1.95604 0 2.99162 0 4.07143V28.5C0 29.5798 0.428953 30.6154 1.19249 31.3789C1.95604 32.1425 2.99162 32.5714 4.07143 32.5714H20.3571C20.7171 32.5714 21.0623 32.4284 21.3168 32.1739C21.5713 31.9194 21.7143 31.5742 21.7143 31.2143C21.7143 30.8544 21.5713 30.5092 21.3168 30.2546C21.0623 30.0001 20.7171 29.8571 20.3571 29.8571Z" fill="#999999"/>
<path d="M12.2141 12.2143C14.088 12.2143 15.607 10.6953 15.607 8.82145C15.607 6.94762 14.088 5.42859 12.2141 5.42859C10.3403 5.42859 8.82129 6.94762 8.82129 8.82145C8.82129 10.6953 10.3403 12.2143 12.2141 12.2143Z" fill="#999999"/>
<path d="M7.17943 16.6793L5.42871 18.4436V27.1429H27.143V18.4436L21.3209 12.6079C21.1947 12.4807 21.0446 12.3797 20.8792 12.3108C20.7138 12.2419 20.5364 12.2064 20.3573 12.2064C20.1781 12.2064 20.0007 12.2419 19.8354 12.3108C19.67 12.3797 19.5199 12.4807 19.3937 12.6079L12.2144 19.8007L9.10657 16.6793C8.9804 16.5521 8.8303 16.4511 8.66492 16.3822C8.49954 16.3133 8.32216 16.2778 8.143 16.2778C7.96384 16.2778 7.78645 16.3133 7.62107 16.3822C7.45569 16.4511 7.30559 16.5521 7.17943 16.6793Z" fill="#999999"/>
</svg>
